<svg id="Capa_1" data-name="Capa 1" xmlns="http://www.w3.org/2000/svg" viewBox="0 0 420 512"><defs><style>.cls-1{fill:#a9c5e4}</style></defs><path class="cls-1" d="M356 429a10 10 0 1010 10 10 10 0 00-10-10zm-200 0a10 10 0 1010 10 10 10 0 00-10-10z" transform="translate(-46)"/><path class="cls-1" d="M447.64 377.21A113 113 0 00402.8 337a9.94 9.94 0 00-5.68-2.61A104.51 104.51 0 00356 326h-30v-26.38A114.72 114.72 0 00361.89 243H366a40 40 0 0029.38-67.11q.94-.79 1.83-1.68a30 30 0 00-11.55-49.61A110.38 110.38 0 00305.42 27c-2.64-13.75-14-27-29.42-27h-40c-15.43 0-26.78 13.26-29.42 27a110.37 110.37 0 00-80.24 97.58 30 30 0 00-9.71 51.29A40 40 0 00146 243h4.08a114.92 114.92 0 0028 49.13c2.51 2.62 5.18 5.11 7.93 7.48V326H156a104.51 104.51 0 00-41.12 8.39 9.94 9.94 0 00-5.68 2.61A114.61 114.61 0 0046 439v63a10 10 0 0010 10h400a10 10 0 0010-10v-63a113.68 113.68 0 00-18.36-61.79zM106 492H66v-53c0-30.42 15.58-59.57 40-76.88zm260-269h-.46c.3-3.33.46-6.67.46-10v-30a20 20 0 010 40zM206 48.14V93a10 10 0 0020 0V33c0-6.2 5.23-13 10-13h40c4.77 0 10 6.8 10 13v60a10 10 0 0020 0V48.14A90.4 90.4 0 01365.44 123H146.56A90.4 90.4 0 01206 48.14zM146 223a20 20 0 010-40v30c0 3.33.16 6.67.46 10zm0-60h-10a10 10 0 010-20h240a10 10 0 010 20H146zm21.82 68.18c0-.11 0-.21-.07-.32A92.35 92.35 0 01166 213v-30h180v30a92.24 92.24 0 01-1.75 17.85c0 .11-.05.22-.07.33a94.69 94.69 0 01-34.84 56.24 85.85 85.85 0 01-106.69 0 92.29 92.29 0 01-10.15-9.12 94.91 94.91 0 01-24.68-47.12zM246 492h-80v-23a10 10 0 00-20 0v23h-20V351.47a85.32 85.32 0 0120-4.88V409a10 10 0 0020 0v-63h25.71L246 403zm-40-160v-18.63a105.32 105.32 0 00100 0V332l-50 52.5zm180 160h-20v-23a10 10 0 00-20 0v23h-80v-89l54.29-57H346v63a10 10 0 0020 0v-62.41a84.85 84.85 0 0120 4.89zm60 0h-40V362.12c24.42 17.31 40 46.46 40 76.88z" transform="translate(-46)"/></svg>