<svg id="Layer_1" data-name="Layer 1" xmlns="http://www.w3.org/2000/svg" viewBox="0 0 511 504.2"><defs><style>.cls-1{fill:#a9c5e4}</style></defs><path class="cls-1" d="M508.92 217.93l-85.53-111.1a10 10 0 00-13.32-2.34l-55.22 35.12h-72a9.9 9.9 0 00-2.75.46l-55.84 16.07-57.96-15.84-56.3-35.81a10 10 0 00-13.18 2.16L2.22 223.83a10 10 0 001.27 13.88l49.58 42.67 44.48 59.95a35.38 35.38 0 0022.26 59.43 36 36 0 00-.41 5.42 35.42 35.42 0 0035.41 35.41h.37v.72a35.41 35.41 0 0035.41 35.41 36.19 36.19 0 005.53-.43 35.41 35.41 0 0060.26 21.55l5.41-5.41 2.28 1.83a35.39 35.39 0 0060-26A35.35 35.35 0 00360 432.32a35.39 35.39 0 0035.95-36 35.39 35.39 0 0030.25-54.68l32.47-68 48.83-42a10 10 0 001.42-13.71zM106.79 126.2l40.48 25.74-88.06 107.29-35.29-30.37zm5.71 227.48l12.22-12.22c.37-.37.76-.72 1.16-1a15.35 15.35 0 018.35-3.39h.26c.43 0 .87-.06 1.31-.05a15.28 15.28 0 0111 4.81c5.66 6 5.36 15.76-.67 21.8l-11.85 11.85a15.37 15.37 0 01-21.74-21.74zM143.94 416a15.34 15.34 0 010-21.73l23.69-23.7a15.53 15.53 0 0117.47-3 15.32 15.32 0 018.47 15.87 16.24 16.24 0 01-4.58 9.26L165.68 416a15.38 15.38 0 01-21.74 0zm35.77 36.12a15.37 15.37 0 010-21.73l23.69-23.69a15.54 15.54 0 0118.6-2.4 15.3 15.3 0 017.34 15.53 16.23 16.23 0 01-4.56 9l-23.31 23.31a15.38 15.38 0 01-21.74 0zm40.75 31.5a15.38 15.38 0 010-21.73l12.22-12.22c.37-.37.75-.72 1.15-1a15.33 15.33 0 016.81-3.16h.18c.43-.08.86-.14 1.3-.18h.53c.36 0 .71-.05 1.08 0a15.26 15.26 0 0111 4.81 13.34 13.34 0 011 1.17 15.86 15.86 0 01-1.73 20.57l-11.79 11.79a15.38 15.38 0 01-21.75-.01zm186.92-111.78a15.4 15.4 0 01-21.74 0 6.57 6.57 0 00-.68-.61l-64.43-65.11a10 10 0 00-14.24 14.1L371.41 386a15.37 15.37 0 11-21.74 21.73l-43.57-44a10 10 0 10-14.24 14.1l42.9 43.35a10.27 10.27 0 00.7.78 15.37 15.37 0 01-21.74 21.74l-23.72-24a10 10 0 10-14.24 14.09l23.11 23.35a7.56 7.56 0 00.71.79 15.37 15.37 0 01-21.74 21.74 22 22 0 00-2.27-1.81c-.66-.5-.83-.85-.5-1.64s.83-1.54 1.16-2.35.66-1.84.95-2.77a36.09 36.09 0 001.3-15.42 35.07 35.07 0 00-29.87-30.16 35.75 35.75 0 00-8.61-32.25 35.14 35.14 0 00-25.24-11.07h-1.06a35.29 35.29 0 00-43.26-35.2 35.28 35.28 0 00-58.55-21l-38.74-52.17 92.67-112.89 29.53 8.06-38.57 68.06a35.41 35.41 0 0013.35 48.26c.52.29 1 .57 1.56.83l.12.06a35.43 35.43 0 0025.19 2.45A35.18 35.18 0 00218.4 272l25.06-44.23 44.75 3.17L407.38 350.1a15.4 15.4 0 010 21.74zm4.15-45.93L299.74 214.12c-.21-.21-.44-.42-.67-.61a10 10 0 00-5.71-2.3l-54.79-3.89a10.2 10.2 0 00-9.43 5.06L201 262.11A15.37 15.37 0 01174.22 247l37.62-66.39 15.24-4.38.3-.1 56.89-16.43H353l85.82 109.09zM452 253l-79.4-100.93 40.5-25.75 74.15 96.32z" transform="translate(0 -3.99)"/><path class="cls-1" d="M309.58 120.79a10 10 0 007.09-2.93l68.44-68.45a10 10 0 00-14.17-14.17l-68.45 68.45a10 10 0 007.09 17.1zm-115.25-2.93a10 10 0 1014.18-14.17l-68.45-68.45a10 10 0 00-14.17 14.17zm61.17 2.93a10 10 0 0010-10V54.13a10 10 0 10-20 0v56.65a10 10 0 0010 10.01zm-9.25-102.97A10 10 0 10261.6 6a10 10 0 00-15.35 11.78z" transform="translate(0 -3.99)"/></svg>