<svg id="Layer_1" data-name="Layer 1" xmlns="http://www.w3.org/2000/svg" viewBox="0 0 480 480"><defs><style>.cls-1{fill:#a9c5e4}</style></defs><path class="cls-1" d="M472 288h-46.7l-43.25-14.4L368 238.46V212a35.91 35.91 0 00-32-35.6c0-1.1.05-2.19.05-3.29V56a8 8 0 00-5.7-7.66l-160-48a8 8 0 00-4.6 0l-160 48A8 8 0 000 56v117.11c0 3.71.25 7.38.38 11.07.21 5.4.51 10.77 1 16.1.08.91.19 1.77.28 2.67A295.48 295.48 0 00164.43 439.2a8 8 0 007.15 0 298.92 298.92 0 0034.57-20.37 32.25 32.25 0 009.34 8.61A32 32 0 00240 480h136a8 8 0 004.44-1.34l46-30.66H472a8 8 0 008-8V296a8 8 0 00-8-8zm-173.14-39.3l9.32 23.3H261.7a207.39 207.39 0 0026.3-99.63l32-9.62v10.36c0 1.71-.05 3.42-.09 5.13A36 36 0 00296 212v21.83a40 40 0 002.86 14.87zM184 304a31.88 31.88 0 008.8 22c-3 2.16-5.88 4.39-8.94 6.39L168 342.49l-15.82-10.17a191.25 191.25 0 01-76.73-96.2l196.32-58.9A191.37 191.37 0 01243.05 272H216a32 32 0 00-32 32zM20.34 221.9c-.06-.4-.13-.8-.2-1.19l31.8-9.51c.94 4.8 2.08 9.6 3.36 14.29l-32.25 9.68c-1.05-4.59-1.92-8.97-2.71-13.27zm-3.68-32.14l31.64-9.49c.22 5 .59 10 1.17 14.94l-31.58 9.47c-.07-.72-.14-1.43-.22-2.15-.4-4.13-.78-8.32-1.01-12.77zM272 96.45l-208 62.4v-57.21L168.27 64.4 272 94zm0 16.7v15.3L65.09 190.52q-.75-7.46-1-15zm48 17.6v15.3l-32 9.6v-15.3zm0-16.7l-32 9.6v-15.3l32-9.6zm-252.67 92.5L197.5 167.5l74.5-22.35v15.3L70.63 220.86c-1.27-4.72-2.4-9.48-3.3-14.31zM16 62l152-45.6L320 62v20.1l-32 9.6V88a8 8 0 00-5.8-7.69l-112-32a8 8 0 00-4.89.15l-112 40A8 8 0 0048 96v67.65l-32 9.6zm152 361A279.66 279.66 0 0126.77 250.72l33.34-10a207.14 207.14 0 0083.41 105.06l20.15 13a8 8 0 008.66 0l20.15-13 .21-.14a31.64 31.64 0 0014.82 33.78A32 32 0 00200 400c0 1.11.09 2.22.22 3.33A280.53 280.53 0 01168 423zm205.6 41H240a15.94 15.94 0 01-1.33-31.83 8.17 8.17 0 007.32-8.48 8 8 0 00-8-7.69h-6a16 16 0 010-32 8 8 0 000-16h-8a16 16 0 010-32 8 8 0 000-16h-8a16 16 0 010-32H320a8 8 0 007.43-11l-13.71-34.27a23.87 23.87 0 01-1.72-8.92V212a20 20 0 0140 0v28a8.22 8.22 0 00.57 3l16 40a8 8 0 004.9 4.61L416 301.77v134zm90.4-32h-32V304h32zm-43-329.28l-11 11.68a117.71 117.71 0 0110.28 10.91l12.31-10.23A134.72 134.72 0 00421 102.72zM464 202q0-4.69-.32-9.32l-16 1.08c.18 2.72.28 5.47.28 8.24q0 3.4-.19 6.76l16 .91q.23-3.82.23-7.67zM407.88 91.91a138.37 138.37 0 00-14.34-9.12l-7.72 14a121.36 121.36 0 0112.65 8z"/><path class="cls-1" d="M461.79 226.51l-15.74-2.86a118.57 118.57 0 01-3.6 14.53L457.7 243a134.31 134.31 0 004.09-16.49zM378.16 75.54A132.7 132.7 0 00362 70.27l-4 15.5a120.45 120.45 0 0114.26 4.64zM433 260.12l14 7.76c1.6-2.93 3.2-5.94 4.57-9L437 252.17c-1.19 2.7-2.53 5.35-4 7.95zm-3.84-122.71a122.83 122.83 0 017.27 13.09l14.44-6.87a133.4 133.4 0 00-8.24-14.84zM442 164.39a121 121 0 013.78 14.49l15.7-3a133.89 133.89 0 00-4.29-16.45zm-82.11-11.81A50.82 50.82 0 01392 200h16a66.74 66.74 0 00-42.17-62.28l-2.83-1.14-6 14.85z"/></svg>