<svg xmlns="http://www.w3.org/2000/svg" viewBox="0 0 272.13 159.33"><defs><style>.cls-1{fill:#d8d8d8;}</style></defs><title>1Ресурс 1</title><g id="Слой_2" data-name="Слой 2"><g id="Layer_1" data-name="Layer 1"><path class="cls-1" d="M226.06,78.12s35.85-50.58,39.42-67.2c1.18-5.93-1.43-9.26-7.6-9.26H226.77c-7.12,0-9.73,3.09-11.87,7.6,0,0-16.82,35.83-37.28,58.42-6.57,7.3-9.91,9.49-13.54,9.49-2.92,0-4.27-2.43-4.27-9V10.45c0-8.07-.95-10.45-7.6-10.45H102.34c-3.8,0-6.17,2.21-6.17,5.22,0,7.61,11.64,9.32,11.64,29.92V77.65c0,8.55-.48,11.87-4.52,11.87-10.68,0-36.09-36.8-50.34-78.6C50.1,2.38,47,0,38.94,0H7.84C3.32,0,0,3.09,0,7.6c0,8.31,9.74,46.78,48,98.31,25.64,34.66,59.36,53.42,89.75,53.42,18.53,0,23-3.08,23-10.92v-26.6c0-6.64,2.61-9.49,6.41-9.49,4.27,0,11.82,1.37,29.44,18.76,20.9,19.94,22.33,28.25,33.72,28.25h34.91c3.56,0,6.89-1.66,6.89-7.6,0-7.83-10.22-21.84-25.89-38.46-6.41-8.55-16.86-17.81-20.18-22.09C221.31,86.2,222.73,83.35,226.06,78.12Z"/></g></g></svg>