<svg id="Capa_1" data-name="Capa 1" xmlns="http://www.w3.org/2000/svg" viewBox="0 0 420 512"><defs><style>.cls-1{fill:#a9c5e4;}</style></defs><title>experience</title><path class="cls-1" d="M356,429a10,10,0,1,0,10,10A10,10,0,0,0,356,429Z" transform="translate(-46)"/><path class="cls-1" d="M156,429a10,10,0,1,0,10,10A10,10,0,0,0,156,429Z" transform="translate(-46)"/><path class="cls-1" d="M447.64,377.21A113,113,0,0,0,402.8,337a9.94,9.94,0,0,0-5.68-2.61A104.51,104.51,0,0,0,356,326H326V299.62A114.72,114.72,0,0,0,361.89,243H366a40,40,0,0,0,29.38-67.11q.94-.79,1.83-1.68a30,30,0,0,0-11.55-49.61A110.38,110.38,0,0,0,305.42,27c-2.64-13.75-14-27-29.42-27H236c-15.43,0-26.78,13.26-29.42,27a110.37,110.37,0,0,0-80.24,97.58,30,30,0,0,0-9.71,51.29A40,40,0,0,0,146,243h4.08a114.92,114.92,0,0,0,28,49.13c2.51,2.62,5.18,5.11,7.93,7.48V326H156a104.51,104.51,0,0,0-41.12,8.39A9.94,9.94,0,0,0,109.2,337,114.61,114.61,0,0,0,46,439v63a10,10,0,0,0,10,10H456a10,10,0,0,0,10-10V439A113.68,113.68,0,0,0,447.64,377.21ZM106,492H66V439c0-30.42,15.58-59.57,40-76.88ZM366,223h-.46c.3-3.33.46-6.67.46-10V183a20,20,0,0,1,0,40ZM206,48.14V93a10,10,0,0,0,20,0V33c0-6.2,5.23-13,10-13h40c4.77,0,10,6.8,10,13V93a10,10,0,0,0,20,0V48.14A90.4,90.4,0,0,1,365.44,123H146.56A90.4,90.4,0,0,1,206,48.14ZM146,223a20,20,0,0,1,0-40v30c0,3.33.16,6.67.46,10Zm0-60H136a10,10,0,0,1,0-20H376a10,10,0,0,1,0,20H146Zm21.82,68.18c0-.11,0-.21-.07-.32A92.35,92.35,0,0,1,166,213V183H346v30a92.24,92.24,0,0,1-1.75,17.85c0,.11-.05.22-.07.33a94.69,94.69,0,0,1-34.84,56.24,85.85,85.85,0,0,1-106.69,0,92.29,92.29,0,0,1-10.15-9.12A94.91,94.91,0,0,1,167.82,231.18ZM246,492H166V469a10,10,0,0,0-20,0v23H126V351.47a85.32,85.32,0,0,1,20-4.88V409a10,10,0,0,0,20,0V346h25.71L246,403ZM206,332V313.37a105.32,105.32,0,0,0,100,0V332l-50,52.5ZM386,492H366V469a10,10,0,0,0-20,0v23H266V403l54.29-57H346v63a10,10,0,0,0,20,0V346.59a84.85,84.85,0,0,1,20,4.89Zm60,0H406V362.12c24.42,17.31,40,46.46,40,76.88Z" transform="translate(-46)"/></svg>