<svg id="Layer_1" data-name="Layer 1" xmlns="http://www.w3.org/2000/svg" viewBox="0 0 480 480"><defs><style>.cls-1{fill:#a9c5e4;}</style></defs><title>stability</title><path class="cls-1" d="M472,288H425.3l-43.25-14.4L368,238.46V212A35.91,35.91,0,0,0,336,176.4c0-1.1.05-2.19.05-3.29V56a8,8,0,0,0-5.7-7.66l-160-48a8,8,0,0,0-4.6,0l-160,48A8,8,0,0,0,0,56V173.11c0,3.71.25,7.38.38,11.07.21,5.4.51,10.77,1,16.1.08.91.19,1.77.28,2.67A295.48,295.48,0,0,0,164.43,439.2a8,8,0,0,0,7.15,0,298.92,298.92,0,0,0,34.57-20.37,32.25,32.25,0,0,0,9.34,8.61A32,32,0,0,0,240,480H376a8,8,0,0,0,4.44-1.34l46-30.66H472a8,8,0,0,0,8-8V296A8,8,0,0,0,472,288ZM298.86,248.7l9.32,23.3H261.7A207.39,207.39,0,0,0,288,172.37L320,162.75v10.36c0,1.71-.05,3.42-.09,5.13A36,36,0,0,0,296,212v21.83A40,40,0,0,0,298.86,248.7ZM184,304A31.88,31.88,0,0,0,192.8,326c-3,2.16-5.88,4.39-8.94,6.39L168,342.49l-15.82-10.17a191.25,191.25,0,0,1-76.73-96.2l196.32-58.9A191.37,191.37,0,0,1,243.05,272H216A32,32,0,0,0,184,304ZM20.34,221.9c-.06-.4-.13-.8-.2-1.19l31.8-9.51c.94,4.8,2.08,9.6,3.36,14.29l-32.25,9.68C22,230.58,21.13,226.2,20.34,221.9Zm-3.68-32.14,31.64-9.49c.22,5,.59,10,1.17,14.94l-31.58,9.47c-.07-.72-.14-1.43-.22-2.15C17.27,198.4,16.89,194.21,16.66,189.76ZM272,96.45,64,158.85V101.64L168.27,64.4,272,94Zm0,16.7v15.3L65.09,190.52q-.75-7.46-1-15Zm48,17.6v15.3l-32,9.6v-15.3Zm0-16.7-32,9.6v-15.3l32-9.6ZM67.33,206.55,197.5,167.5,272,145.15v15.3L70.63,220.86C69.36,216.14,68.23,211.38,67.33,206.55ZM16,62l152-45.6L320,62v20.1l-32,9.6V88a8,8,0,0,0-5.8-7.69l-112-32a8,8,0,0,0-4.89.15l-112,40A8,8,0,0,0,48,96v67.65l-32,9.6ZM168,423A279.66,279.66,0,0,1,26.77,250.72l33.34-10a207.14,207.14,0,0,0,83.41,105.06l20.15,13a8,8,0,0,0,8.66,0l20.15-13,.21-.14a31.64,31.64,0,0,0,14.82,33.78A32,32,0,0,0,200,400c0,1.11.09,2.22.22,3.33A280.53,280.53,0,0,1,168,423Zm205.6,41H240a15.94,15.94,0,0,1-1.33-31.83,8.17,8.17,0,0,0,7.32-8.48,8,8,0,0,0-8-7.69h-6a16,16,0,0,1,0-32,8,8,0,0,0,0-16h-8a16,16,0,0,1,0-32,8,8,0,0,0,0-16h-8a16,16,0,0,1,0-32H320a8,8,0,0,0,7.43-11l-13.71-34.27a23.87,23.87,0,0,1-1.72-8.92V212a20,20,0,0,1,40,0v28a8.22,8.22,0,0,0,.57,3l16,40a8,8,0,0,0,4.9,4.61L416,301.77v134ZM464,432H432V304h32Z" transform="translate(0 0)"/><path class="cls-1" d="M421,102.72,410,114.4a117.71,117.71,0,0,1,10.28,10.91l12.31-10.23A134.72,134.72,0,0,0,421,102.72Z" transform="translate(0 0)"/><path class="cls-1" d="M464,202q0-4.69-.32-9.32l-16,1.08c.18,2.72.28,5.47.28,8.24q0,3.4-.19,6.76l16,.91Q464,205.85,464,202Z" transform="translate(0 0)"/><path class="cls-1" d="M407.88,91.91a138.37,138.37,0,0,0-14.34-9.12l-7.72,14a121.36,121.36,0,0,1,12.65,8Z" transform="translate(0 0)"/><path class="cls-1" d="M461.79,226.51l-15.74-2.86a118.57,118.57,0,0,1-3.6,14.53L457.7,243A134.31,134.31,0,0,0,461.79,226.51Z" transform="translate(0 0)"/><path class="cls-1" d="M378.16,75.54A132.7,132.7,0,0,0,362,70.27l-4,15.5a120.45,120.45,0,0,1,14.26,4.64Z" transform="translate(0 0)"/><path class="cls-1" d="M433,260.12l14,7.76c1.6-2.93,3.2-5.94,4.57-9L437,252.17C435.81,254.87,434.47,257.52,433,260.12Z" transform="translate(0 0)"/><path class="cls-1" d="M429.16,137.41a122.83,122.83,0,0,1,7.27,13.09l14.44-6.87a133.4,133.4,0,0,0-8.24-14.84Z" transform="translate(0 0)"/><path class="cls-1" d="M442,164.39a121,121,0,0,1,3.78,14.49l15.7-3a133.89,133.89,0,0,0-4.29-16.45Z" transform="translate(0 0)"/><path class="cls-1" d="M359.89,152.58A50.82,50.82,0,0,1,392,200h16a66.74,66.74,0,0,0-42.17-62.28L363,136.58l-6,14.85Z" transform="translate(0 0)"/></svg>