<svg xmlns="http://www.w3.org/2000/svg" viewBox="0 0 55 55"><defs><style>.cls-1{fill:#d8d8d8;}</style></defs><title>1Ресурс 1</title><g id="Слой_2" data-name="Слой 2"><g id="Layer_1" data-name="Layer 1"><path class="cls-1" d="M27.5,5c7.34,0,8.21,0,11.11.17a15.42,15.42,0,0,1,5.11.94,8.57,8.57,0,0,1,3.16,2.06,8.57,8.57,0,0,1,2.06,3.16,15.42,15.42,0,0,1,.94,5.11c.14,2.9.17,3.77.17,11.11s0,8.21-.17,11.11a15.42,15.42,0,0,1-.94,5.11,9.15,9.15,0,0,1-5.22,5.22,15.42,15.42,0,0,1-5.11.94c-2.9.14-3.77.17-11.11.17s-8.21,0-11.11-.17a15.42,15.42,0,0,1-5.11-.94,8.57,8.57,0,0,1-3.16-2.06,8.57,8.57,0,0,1-2.06-3.16,15.42,15.42,0,0,1-.94-5.11C5,35.71,5,34.84,5,27.5s0-8.21.17-11.11a15.42,15.42,0,0,1,.94-5.11A8.57,8.57,0,0,1,8.12,8.12a8.57,8.57,0,0,1,3.16-2.06,15.42,15.42,0,0,1,5.11-.94C19.29,5,20.16,5,27.5,5M27.5,0C20,0,19.09,0,16.16.17A20.07,20.07,0,0,0,9.49,1.44,13.49,13.49,0,0,0,4.62,4.62,13.49,13.49,0,0,0,1.44,9.49,20.07,20.07,0,0,0,.17,16.16C0,19.09,0,20,0,27.5s0,8.41.17,11.34a20.07,20.07,0,0,0,1.27,6.67,13.49,13.49,0,0,0,3.18,4.87,13.49,13.49,0,0,0,4.87,3.18,20.07,20.07,0,0,0,6.67,1.27C19.09,55,20,55,27.5,55s8.41,0,11.34-.17a20.07,20.07,0,0,0,6.67-1.27,14.15,14.15,0,0,0,8.05-8.05,20.07,20.07,0,0,0,1.27-6.67C55,35.91,55,35,55,27.5s0-8.41-.17-11.34a20.07,20.07,0,0,0-1.27-6.67,13.49,13.49,0,0,0-3.18-4.87,13.49,13.49,0,0,0-4.87-3.18A20.07,20.07,0,0,0,38.84.17C35.91,0,35,0,27.5,0Z"/><path class="cls-1" d="M27.5,13.38A14.12,14.12,0,1,0,41.62,27.5,14.12,14.12,0,0,0,27.5,13.38Zm0,23.29a9.17,9.17,0,1,1,9.17-9.17A9.18,9.18,0,0,1,27.5,36.67Z"/><circle class="cls-1" cx="42.18" cy="12.82" r="3.3"/></g></g></svg>