<svg id="Layer_1" data-name="Layer 1" xmlns="http://www.w3.org/2000/svg" viewBox="0 0 511 504.2"><defs><style>.cls-1{fill:#a9c5e4;}</style></defs><title>partnership</title><path class="cls-1" d="M508.92,217.93l-85.53-111.1a10,10,0,0,0-13.32-2.34l-55.22,35.12h-72a9.9,9.9,0,0,0-2.75.46l-55.84,16.07L166.3,140.3,110,104.49a10,10,0,0,0-13.18,2.16L2.22,223.83a10,10,0,0,0,1.27,13.88l49.58,42.67,44.48,59.95a35.38,35.38,0,0,0,22.26,59.43,36,36,0,0,0-.41,5.42,35.42,35.42,0,0,0,35.41,35.41h.37c0,.24,0,.47,0,.72a35.41,35.41,0,0,0,35.41,35.41,36.19,36.19,0,0,0,5.53-.43,35.41,35.41,0,0,0,60.26,21.55l5.41-5.41,2.28,1.83a35.39,35.39,0,0,0,60-26A35.35,35.35,0,0,0,360,432.32a35.39,35.39,0,0,0,35.95-36,35.39,35.39,0,0,0,30.25-54.68l32.47-68,48.83-42A10,10,0,0,0,508.92,217.93ZM106.79,126.2l40.48,25.74L59.21,259.23,23.92,228.86Zm5.71,227.48,12.22-12.22c.37-.37.76-.72,1.16-1a15.35,15.35,0,0,1,8.35-3.39h.26c.43,0,.87-.06,1.31-.05a15.28,15.28,0,0,1,11,4.81c5.66,6,5.36,15.76-.67,21.8l-11.85,11.85a15.37,15.37,0,0,1-21.74-21.74ZM143.94,416a15.34,15.34,0,0,1,0-21.73l23.69-23.7a15.53,15.53,0,0,1,17.47-3,15.32,15.32,0,0,1,8.47,15.87,16.24,16.24,0,0,1-4.58,9.26L165.68,416a15.38,15.38,0,0,1-21.74,0Zm35.77,36.12a15.37,15.37,0,0,1,0-21.73l23.69-23.69A15.54,15.54,0,0,1,222,404.3a15.3,15.3,0,0,1,7.34,15.53,16.23,16.23,0,0,1-4.56,9l-23.31,23.31a15.38,15.38,0,0,1-21.74,0Zm40.75,31.5a15.38,15.38,0,0,1,0-21.73l12.22-12.22c.37-.37.75-.72,1.15-1l0,0a15.33,15.33,0,0,1,6.81-3.16l.18,0c.43-.08.86-.14,1.3-.18l.53,0c.36,0,.71-.05,1.08,0a15.26,15.26,0,0,1,11,4.81,13.34,13.34,0,0,1,1,1.17A15.86,15.86,0,0,1,254,471.88l-11.79,11.79A15.38,15.38,0,0,1,220.46,483.66ZM407.38,371.84a15.4,15.4,0,0,1-21.74,0,6.57,6.57,0,0,0-.68-.61l-64.43-65.11a10,10,0,0,0-14.24,14.1L371.41,386l0,0a15.37,15.37,0,1,1-21.74,21.73l-43.57-44a10,10,0,1,0-14.24,14.1l42.9,43.35a10.27,10.27,0,0,0,.7.78,15.37,15.37,0,0,1-21.74,21.74L290,419.7a10,10,0,1,0-14.24,14.09l23.11,23.35a7.56,7.56,0,0,0,.71.79,15.37,15.37,0,0,1-21.74,21.74,22,22,0,0,0-2.27-1.81c-.66-.5-.83-.85-.5-1.64s.83-1.54,1.16-2.35.66-1.84.95-2.77a36.09,36.09,0,0,0,1.3-15.42,35.07,35.07,0,0,0-29.87-30.16A35.75,35.75,0,0,0,240,393.27a35.14,35.14,0,0,0-25.24-11.07H213.7A35.29,35.29,0,0,0,170.44,347a35.28,35.28,0,0,0-58.55-21L73.15,273.83l92.67-112.89L195.35,169l-38.57,68.06a35.41,35.41,0,0,0,13.35,48.26c.52.29,1,.57,1.56.83l.12.06A35.43,35.43,0,0,0,197,288.66,35.18,35.18,0,0,0,218.4,272l25.06-44.23,44.75,3.17L407.38,350.1A15.4,15.4,0,0,1,407.38,371.84Zm4.15-45.93L299.74,214.12c-.21-.21-.44-.42-.67-.61a10,10,0,0,0-5.71-2.3l-54.79-3.89a10.2,10.2,0,0,0-9.43,5.06L201,262.11A15.37,15.37,0,0,1,174.22,247l37.62-66.39,15.24-4.38.3-.1,56.89-16.43H353l85.82,109.09ZM452,253,372.6,152.07l40.5-25.75,74.15,96.32Z" transform="translate(0 -3.99)"/><path class="cls-1" d="M309.58,120.79a10,10,0,0,0,7.09-2.93l68.44-68.45a10,10,0,0,0-14.17-14.17l-68.45,68.45a10,10,0,0,0,7.09,17.1Z" transform="translate(0 -3.99)"/><path class="cls-1" d="M194.33,117.86a10,10,0,1,0,14.18-14.17L140.06,35.24a10,10,0,0,0-14.17,14.17Z" transform="translate(0 -3.99)"/><path class="cls-1" d="M255.5,120.79a10,10,0,0,0,10-10V54.13a10,10,0,1,0-20,0v56.65A10,10,0,0,0,255.5,120.79Z" transform="translate(0 -3.99)"/><path class="cls-1" d="M246.25,17.82A10,10,0,1,0,261.6,6a10,10,0,0,0-15.35,11.78Z" transform="translate(0 -3.99)"/></svg>